<svg width="321" height="69" viewBox="0 0 321 69" fill="none" xmlns="http://www.w3.org/2000/svg">
<path d="M309.996 64.2161C309.024 64.2161 308.208 64.0421 307.548 63.6941C306.9 63.3461 306.408 62.8721 306.072 62.2721C305.748 61.6601 305.592 60.9761 305.604 60.2201H306.45C306.45 60.8081 306.57 61.3541 306.81 61.8581C307.062 62.3501 307.446 62.7461 307.962 63.0461C308.49 63.3461 309.162 63.4961 309.978 63.4961C310.722 63.4961 311.328 63.3761 311.796 63.1361C312.276 62.8961 312.636 62.5721 312.876 62.1641C313.116 61.7561 313.236 61.3001 313.236 60.7961C313.236 60.1841 313.098 59.6981 312.822 59.3381C312.558 58.9661 312.204 58.6661 311.76 58.4381C311.328 58.2101 310.842 58.0181 310.302 57.8621C309.774 57.6941 309.252 57.5141 308.736 57.3221C307.896 57.0221 307.254 56.6441 306.81 56.1881C306.366 55.7201 306.144 55.1021 306.144 54.3341C306.144 53.7461 306.282 53.2181 306.558 52.7501C306.846 52.2701 307.266 51.8921 307.818 51.6161C308.37 51.3281 309.042 51.1841 309.834 51.1841C310.566 51.1841 311.214 51.3161 311.778 51.5801C312.342 51.8441 312.786 52.2281 313.11 52.7321C313.434 53.2241 313.596 53.8361 313.596 54.5681H312.732C312.732 54.0041 312.612 53.5241 312.372 53.1281C312.144 52.7321 311.808 52.4321 311.364 52.2281C310.932 52.0121 310.416 51.9041 309.816 51.9041C309.18 51.9041 308.652 52.0121 308.232 52.2281C307.812 52.4321 307.5 52.7141 307.296 53.0741C307.092 53.4221 306.99 53.8241 306.99 54.2801C306.99 54.7961 307.116 55.2101 307.368 55.5221C307.62 55.8341 307.956 56.0921 308.376 56.2961C308.808 56.4881 309.288 56.6681 309.816 56.8361C310.344 57.0041 310.884 57.1961 311.436 57.4121C311.94 57.6161 312.39 57.8561 312.786 58.1321C313.194 58.4081 313.512 58.7561 313.74 59.1761C313.98 59.5961 314.1 60.1241 314.1 60.7601C314.1 61.3841 313.95 61.9601 313.65 62.4881C313.35 63.0041 312.894 63.4241 312.282 63.7481C311.682 64.0601 310.92 64.2161 309.996 64.2161Z" fill="#77512E"/>
<path d="M281.339 64.2161C280.151 64.2161 279.113 63.9461 278.225 63.4061C277.349 62.8541 276.671 62.0921 276.191 61.1201C275.711 60.1361 275.471 58.9961 275.471 57.7001C275.471 56.4041 275.711 55.2701 276.191 54.2981C276.671 53.3141 277.349 52.5521 278.225 52.0121C279.113 51.4601 280.151 51.1841 281.339 51.1841C282.719 51.1841 283.829 51.5021 284.669 52.1381C285.509 52.7621 286.061 53.6501 286.325 54.8021H285.425C285.209 53.9381 284.765 53.2421 284.093 52.7141C283.433 52.1861 282.515 51.9221 281.339 51.9221C280.343 51.9221 279.467 52.1501 278.711 52.6061C277.967 53.0621 277.379 53.7221 276.947 54.5861C276.527 55.4501 276.317 56.4881 276.317 57.7001C276.317 58.9121 276.527 59.9501 276.947 60.8141C277.379 61.6661 277.967 62.3261 278.711 62.7941C279.467 63.2501 280.343 63.4781 281.339 63.4781C282.503 63.4781 283.421 63.2141 284.093 62.6861C284.777 62.1461 285.221 61.4441 285.425 60.5801H286.325C286.061 61.7321 285.509 62.6261 284.669 63.2621C283.829 63.8981 282.719 64.2161 281.339 64.2161Z" fill="#77512E"/>
<path d="M254.807 64.0001V51.4001H255.617V64.0001H254.807Z" fill="#77512E"/>
<path d="M225.395 64.0001V51.4001H226.259L233.621 62.6681V51.4001H234.431V64.0001H233.585L226.205 52.6961V64.0001H225.395Z" fill="#77512E"/>
<path d="M204.209 64.0001V51.4001H205.019V64.0001H204.209Z" fill="#77512E"/>
<path d="M177.574 64.0001V51.4001H178.384V63.3341H184.504V64.0001H177.574Z" fill="#77512E"/>
<path d="M152.733 64.2161C151.545 64.2161 150.507 63.9461 149.619 63.4061C148.743 62.8541 148.065 62.0921 147.585 61.1201C147.105 60.1361 146.865 58.9961 146.865 57.7001C146.865 56.4041 147.105 55.2701 147.585 54.2981C148.065 53.3141 148.743 52.5521 149.619 52.0121C150.507 51.4601 151.545 51.1841 152.733 51.1841C154.113 51.1841 155.223 51.5021 156.063 52.1381C156.903 52.7621 157.455 53.6501 157.719 54.8021H156.819C156.603 53.9381 156.159 53.2421 155.487 52.7141C154.827 52.1861 153.909 51.9221 152.733 51.9221C151.737 51.9221 150.861 52.1501 150.105 52.6061C149.361 53.0621 148.773 53.7221 148.341 54.5861C147.921 55.4501 147.711 56.4881 147.711 57.7001C147.711 58.9121 147.921 59.9501 148.341 60.8141C148.773 61.6661 149.361 62.3261 150.105 62.7941C150.861 63.2501 151.737 63.4781 152.733 63.4781C153.897 63.4781 154.815 63.2141 155.487 62.6861C156.171 62.1461 156.615 61.4441 156.819 60.5801H157.719C157.455 61.7321 156.903 62.6261 156.063 63.2621C155.223 63.8981 154.113 64.2161 152.733 64.2161Z" fill="#77512E"/>
<path d="M83.8093 68.9911C74.8257 69.215 73.0613 65.2131 72.885 57.2627C72.7203 49.8287 68.8782 45.1169 61.2633 44.9675C58.3531 44.9104 53.7965 44.8198 51.4668 42.7536C48.3282 39.9104 48.5843 34.8687 48.3498 31.0208C47.7961 21.9339 39.893 20.0867 32.153 20.767C28.8747 21.0552 25.8017 21.9111 23.5919 24.5406C20.7044 27.976 20.8518 33.0231 21.058 37.2421C21.3284 43.3345 24.8104 47.2816 30.9262 48.0106C34.7657 48.4681 38.8522 47.5498 42.3392 50.4734C44.3357 52.2166 44.9512 54.5674 45.1112 57.0741C45.5239 63.5417 43.7241 68.6664 36.4048 68.9493C33.3428 69.0677 29.7477 69.1089 27.2684 66.9393C24.4064 64.4352 24.4727 60.529 24.3401 57.0677C24.0128 50.3554 21.0001 45.8633 14.0098 45.0844C10.4615 44.6892 5.64732 45.1216 2.78301 42.6814C1.20879 41.3411 0.0428594 37.8304 0.00497736 35.8508C-0.0465843 33.1004 0.275419 28.9628 2.23267 26.8022C4.71605 24.0609 8.45691 24.2421 11.8947 24.0758C19.0018 23.7319 23.4341 20.7152 24.2422 13.4099C24.6431 9.78309 23.9591 5.62287 26.652 2.59976C28.3813 0.658401 31.4901 0.167022 33.9651 0.0395721C34.0942 0.0281665 34.2236 0.0201099 34.3532 0.0152965C36.136 -0.0509394 38.9323 0.237133 40.5674 1.02506C48.4673 4.83212 42.5596 14.1592 48.0153 20.3851C53.9133 27.116 62.9226 21.1965 67.6979 27.4265C71.1021 31.8675 67.7186 41.0068 72.9964 45.2685C76.5793 48.4501 81.1308 48.2261 85.6533 48.108C88.7231 48.0278 92.1934 46.8709 94.3252 44.5556C97.4615 41.1494 97.2223 36.5311 97.0913 32.1894C96.9346 28.7963 96.2594 26.2434 93.783 23.8393C86.8384 17.0976 73.4763 25.6311 73.0517 11.5871C72.8944 8.96294 73.2291 4.66983 75.1652 2.63021C78.2088 -0.787801 87.9817 -0.845244 91.0852 2.28732C96.2112 7.46148 91.3223 15.4152 97.233 20.9765C103.136 26.5311 109.894 21.8097 115.545 26.4653C117.385 27.9807 117.946 30.8531 117.967 33.0714C118.803 51.4662 103.571 40.0497 96.338 49.0017C95.3492 50.3103 94.2081 52.726 94.0847 54.3734C93.4633 62.6705 94.1551 68.6085 83.8093 68.9911Z" fill="#77512E"/>
<path d="M210.783 39.9667V9.00122H221.311C224.88 9.00122 227.844 9.65002 230.203 10.9476C232.562 12.2157 234.302 14.0147 235.423 16.3445C236.573 18.6448 237.148 21.3579 237.148 24.484C237.148 27.5805 236.573 30.2937 235.423 32.6235C234.302 34.9533 232.562 36.767 230.203 38.0646C227.873 39.3327 224.895 39.9667 221.267 39.9667H210.783ZM216.976 34.6584H220.958C223.435 34.6584 225.381 34.2602 226.797 33.464C228.242 32.6382 229.274 31.4733 229.893 29.9693C230.513 28.4358 230.822 26.6073 230.822 24.484C230.822 22.3606 230.513 20.5469 229.893 19.0429C229.274 17.5094 228.242 16.3297 226.797 15.504C225.381 14.6782 223.435 14.2654 220.958 14.2654H216.976V34.6584Z" fill="#77512E"/>
<path d="M185.135 39.9667V9.00122H205.616V13.9999H191.328V21.8298H204.289V26.6516H191.328V34.968H205.616V39.9667H185.135Z" fill="#77512E"/>
<path d="M146.006 39.9667V9.00122H153.438L162.771 28.0671L171.973 9.00122H179.36V39.9667H173.167V19.4853L165.16 35.6316H160.25L152.199 19.4853V39.9667H146.006Z" fill="#77512E"/>
<path d="M293.164 39.9667L298.649 9.00122H306.745C310.225 9.00122 312.997 9.56155 315.061 10.6822C317.125 11.8029 318.556 13.4396 319.352 15.5925C320.178 17.7453 320.414 20.37 320.06 23.4665C319.824 25.8848 319.249 28.0966 318.335 30.102C317.45 32.1074 316.226 33.8621 314.663 35.3661C313.129 36.8407 311.257 37.9761 309.045 38.7724C306.863 39.5686 304.326 39.9667 301.436 39.9667H293.164ZM295.464 38.2858H301.702C304.975 38.2858 307.762 37.6959 310.062 36.5163C312.363 35.3072 314.176 33.5967 315.503 31.3849C316.831 29.173 317.656 26.5631 317.981 23.555C318.335 20.8713 318.187 18.571 317.538 16.6541C316.89 14.7372 315.68 13.2627 313.911 12.2305C312.142 11.1983 309.694 10.6822 306.568 10.6822H300.33L295.464 38.2858Z" fill="#77512E"/>
<path d="M263.711 39.9667L280.565 9.00122H282.688L288.439 39.9667H286.36L281.184 11.4342L265.879 39.9667H263.711ZM269.86 30.1462L270.745 28.4653H285.387L285.741 30.1462H269.86Z" fill="#77512E"/>
<path d="M240.914 39.9667L246.399 9.00122H255.025C257.326 9.00122 259.125 9.36986 260.422 10.1071C261.749 10.8444 262.664 11.8471 263.165 13.1152C263.696 14.3538 263.873 15.7547 263.696 17.3177C263.489 19.2051 262.9 20.8566 261.926 22.2722C260.983 23.6582 259.67 24.7347 257.989 25.5014C256.308 26.2682 254.259 26.6516 251.84 26.6516H245.249L242.905 39.9667H240.914ZM257.812 39.9667L253.168 25.8995H255.291L260.024 39.9667H257.812ZM245.559 25.0148H252.15C254.834 25.0148 257.001 24.3808 258.653 23.1126C260.334 21.815 261.322 19.9129 261.617 17.4061C261.882 15.3123 261.425 13.6755 260.245 12.4959C259.095 11.3163 257.223 10.7264 254.627 10.7264H248.08L245.559 25.0148Z" fill="#77512E"/>
</svg>
